# xmcd
#
# Track frame offsets: 
#        150
#        17685
#        34725
#        49461
#        66031
#        90202
#        100460
#        123913
#        139870
#        161023
#        173616
#        186721
#        197960
#        209511
#        222393
#        233389
#        246822
#
# Disc length: 3485 seconds
#
# Revision: 2
# Processed by: cddbd v1.5.2PL0 Copyright (c) Steve Scherf et al.
# Submitted via: ExactAudioCopy v0.99pb5
#
DISCID=f40d9b11
DTITLE=Glenn Miller - [CD 04-10] - String Of Pearls
DYEAR=1900
DGENRE=Jazz
TTITLE0=Moonlight Serenade - Running Wild  [1939]
TTITLE1=Sunrise Serenade  [1939]
TTITLE2=Little Brown Jug  [1939]
TTITLE3=Stairways To The Stars  [1939]
TTITLE4=One O'Clock Jump  [1939]
TTITLE5=Londonderry Air  [1939]
TTITLE6=Jim Jam Jump - For John - Hold Tight  [1939]
TTITLE7=In The Mood  [1939]
TTITLE8=Bugle Call Rag - Moonlight Serenade  [1939]
TTITLE9=Runnin' Wild - Broadcast Closing  [1939]
TTITLE10=The Rumba Jumps  [1940]
TTITLE11=I'll Never Smile Again  [1940]
TTITLE12=Sophisticated Lady  [1940]
TTITLE13=Pennsylvania  6.500 [1940]
TTITLE14=Let's Sing Together  [1940]
TTITLE15=Slip Horn Jive  [1940]
TTITLE16=String Of Pearls  [1940]
EXTD=
EXTT0=
EXTT1=
EXTT2=
EXTT3=
EXTT4=
EXTT5=
EXTT6=
EXTT7=
EXTT8=
EXTT9=
EXTT10=
EXTT11=
EXTT12=
EXTT13=
EXTT14=
EXTT15=
EXTT16=
PLAYORDER=
